<?xml version="1.0" encoding="iso-8859-1"?>
<!-- Uploaded to: SVG Repo, www.svgrepo.com, Generator: SVG Repo Mixer Tools -->
<svg fill="#000000" height="800px" width="800px" version="1.1" id="Layer_1" xmlns="http://www.w3.org/2000/svg" xmlns:xlink="http://www.w3.org/1999/xlink" 
	 viewBox="0 0 512 512" xml:space="preserve">
<g>
	<g>
		<polygon points="456,72 456,40 420,40 420,72 88,72 88,40 52,40 52,72 0,72 0,144 512,144 512,72 		"/>
	</g>
</g>
<g>
	<g>
		<path d="M512,224v-72H0v72h52v76H13.336C7.08,300,4,304.1,4,310.364v27.972C4,344.596,7.08,352,13.336,352H40v120h48v-72h336v72
			h52V352h24.704c6.264,0,11.296-7.404,11.296-13.664v-27.972C512,304.1,506.968,300,500.704,300H456v-76H512z M88,224h332v76H88
			V224z M424,392H88v-40h336V392z"/>
	</g>
</g>
</svg>