<?xml version="1.0" encoding="iso-8859-1"?>
<!-- Uploaded to: SVG Repo, www.svgrepo.com, Generator: SVG Repo Mixer Tools -->
<!DOCTYPE svg PUBLIC "-//W3C//DTD SVG 1.1//EN" "http://www.w3.org/Graphics/SVG/1.1/DTD/svg11.dtd">
<svg fill="#000000" height="800px" width="800px" version="1.1" id="Capa_1" xmlns="http://www.w3.org/2000/svg" xmlns:xlink="http://www.w3.org/1999/xlink" 
	 viewBox="0 0 351.766 351.766" xml:space="preserve">
<path d="M313.397,28.204h-59.649c-0.967,0-1.922,0.048-2.871,0.119H53.14c-13.425,0-24.347,10.922-24.347,24.346v193.495
	c0,13.424,10.922,24.346,24.347,24.346h6.265v13.559c0,0.979,0.002,2.373,0.124,3.965H10.435C4.682,288.034,0,292.715,0,298.468
	v14.659c0,5.753,4.682,10.434,10.435,10.434h295.264c5.753,0,10.435-4.681,10.435-10.434v-14.659
	c0-5.753-4.682-10.434-10.435-10.434h-49.093c0.122-1.591,0.124-2.985,0.124-3.965V270.51h6.265
	c13.425,0,24.347-10.922,24.347-24.346v-72.276h26.058c21.156,0,38.368-17.212,38.368-38.368V66.573
	C351.766,45.416,334.554,28.204,313.397,28.204z M316.766,135.519c0,1.826-1.542,3.368-3.368,3.368H287.34V63.204h26.058
	c1.826,0,3.368,1.542,3.368,3.368V135.519z"/>
</svg>